Coordinates
version=1
nRows=31
nColumns=38
inDegrees=no

Units are S.I. units (second, meters, Newtons, ...)
If the header above contains a line with 'inDegrees', this indicates whether rotational values are in degrees (yes) or radians (no).

endheader
time	pelvis_tilt	pelvis_list	pelvis_rotation	pelvis_tx	pelvis_ty	pelvis_tz	hip_flexion_r	hip_adduction_r	hip_rotation_r	knee_angle_r	ankle_angle_r	subtalar_angle_r	mtp_angle_r	hip_flexion_l	hip_adduction_l	hip_rotation_l	knee_angle_l	ankle_angle_l	subtalar_angle_l	mtp_angle_l	lumbar_extension	lumbar_bending	lumbar_rotation	arm_flex_r	arm_add_r	arm_rot_r	elbow_flex_r	pro_sup_r	wrist_flex_r	wrist_dev_r	arm_flex_l	arm_add_l	arm_rot_l	elbow_flex_l	pro_sup_l	wrist_flex_l	wrist_dev_l
3.43	0.37801	1.45645	-1.36244	0.83773	0.623862	0.926829	0.356588	-0.176541	-0.300559	0.348321	0.111805	0	0	-0.329461	-0.0403049	-0.0897376	0.0245671	0.192477	0	0	-0.398114	0.100385	0.155293	0.638017	-0.221058	0.0244236	0.973106	1.5708	0	0	-0.175209	-0.387659	0.552093	0.693931	1.12294	0	0
3.44	0.390829	1.45829	-1.37416	0.838599	0.617091	0.925652	0.350095	-0.178431	-0.318546	0.337414	0.113699	0	0	-0.337648	-0.042277	-0.089194	0.0200917	0.194451	0	0	-0.394092	0.0995876	0.153109	0.624625	-0.225798	0.0175244	0.992306	1.5708	0	0	-0.181685	-0.384372	0.550504	0.694363	1.12271	0	0
3.45	0.408205	1.46083	-1.39068	0.839439	0.610207	0.924374	0.345957	-0.181338	-0.338878	0.331474	0.116334	0	0	-0.344467	-0.0437296	-0.0903544	0.0171568	0.196993	0	0	-0.389421	0.0981751	0.150709	0.610507	-0.230173	0.0101868	1.01233	1.5708	0	0	-0.188435	-0.381246	0.549201	0.695534	1.12242	0	0
3.46	0.424736	1.46395	-1.40671	0.84023	0.603139	0.923057	0.342862	-0.184858	-0.361688	0.329624	0.120364	0	0	-0.349975	-0.0453285	-0.0925939	0.015673	0.199818	0	0	-0.384371	0.0967887	0.148049	0.595877	-0.233931	0.00297834	1.03206	1.5708	0	0	-0.195515	-0.378067	0.548206	0.696522	1.12189	0	0
3.47	0.436889	1.46665	-1.41887	0.84092	0.595909	0.921775	0.337622	-0.186152	-0.383025	0.326691	0.124556	0	0	-0.355353	-0.0475795	-0.0953898	0.015484	0.203148	0	0	-0.379593	0.0958367	0.146019	0.58057	-0.237648	-0.00399783	1.05226	1.5708	0	0	-0.202169	-0.375335	0.549733	0.697838	1.11855	0	0
3.48	0.44721	1.46921	-1.42926	0.84152	0.588519	0.920513	0.330173	-0.185239	-0.401392	0.320844	0.127438	0	0	-0.360228	-0.0503448	-0.099069	0.0166302	0.206635	0	0	-0.374719	0.0950701	0.143382	0.566403	-0.239942	-0.0105445	1.06984	1.5708	0	0	-0.209396	-0.372106	0.548862	0.698584	1.12273	0	0
3.49	0.45861	1.4726	-1.44016	0.842147	0.580952	0.919159	0.323299	-0.184465	-0.421149	0.316941	0.131113	0	0	-0.363092	-0.053503	-0.104071	0.0204433	0.21207	0	0	-0.369048	0.0942746	0.14002	0.551142	-0.24202	-0.0179964	1.09025	1.5708	0	0	-0.217048	-0.369186	0.548727	0.700487	1.12737	0	0
3.5	0.452961	1.47165	-1.43357	0.842648	0.573508	0.918468	0.318246	-0.182563	-0.464495	0.335261	0.145309	0	0	-0.37111	-0.0591355	-0.106411	0.0217481	0.213428	0	0	-0.368545	0.0961901	0.136021	0.53989	-0.244827	-0.0212317	1.1057	1.5708	0	0	-0.22401	-0.365313	0.548353	0.703093	1.12602	0	0
3.51	0.696356	1.4339	-1.65013	0.84519	0.5701	0.922776	0.258829	-0.220387	-0.509434	0.329176	0.141855	0	0	-0.40519	-0.0406221	-0.0769026	0.0341694	0.200959	0	0	-0.414243	0.0790963	0.0987686	0.54338	-0.246188	-0.0206925	1.12206	1.5708	0	0	-0.220771	-0.365759	0.549558	0.711999	1.12493	0	0
3.52	0.714095	1.43626	-1.66845	0.845542	0.561961	0.921533	0.249398	-0.216486	-0.520553	0.32237	0.138206	0	0	-0.408378	-0.0437372	-0.0811673	0.0387873	0.203802	0	0	-0.408862	0.0772043	0.0937201	0.531484	-0.246281	-0.0219541	1.13706	1.5708	0	0	-0.229368	-0.362263	0.548797	0.712512	1.12727	0	0
3.53	0.477371	1.48179	-1.46042	0.843582	0.54968	0.914847	0.293806	-0.165752	-0.469579	0.322576	0.192778	0	0	-0.376885	-0.0708571	-0.122039	0.0394298	0.223744	0	0	-0.351582	0.0944719	0.123282	0.504769	-0.247531	-0.0244407	1.15267	1.5708	0	0	-0.24689	-0.351998	0.547814	0.701592	1.12802	0	0
3.54	0.497115	1.48496	-1.4808	0.843948	0.540873	0.913348	0.284339	-0.164066	-0.506085	0.303251	0.119918	0	0	-0.377316	-0.0753837	-0.132754	0.0513768	0.23146	0	0	-0.344702	0.0934341	0.1188	0.491961	-0.298693	0.0579667	1.18732	1.5708	0	0	-0.254804	-0.347838	0.548988	0.699545	1.12929	0	0
3.55	0.467352	1.48858	-1.45474	0.843638	0.532831	0.912593	0.278561	-0.151545	-0.4861	0.295623	0.144907	0	0	-0.37499	-0.0834215	-0.143832	0.0654131	0.236673	0	0	-0.340104	0.0958756	0.117483	0.479907	-0.302013	0.064653	1.20614	1.5708	0	0	-0.259	-0.340345	0.55072	0.694051	1.13109	0	0
3.56	0.462924	1.49117	-1.45239	0.843447	0.523894	0.9117	0.270964	-0.146521	-0.516757	0.276029	0.0670982	0	0	-0.374688	-0.0908891	-0.154507	0.0795207	0.241396	0	0	-0.334792	0.0954459	0.113889	0.464836	-0.301314	0.0626418	1.22219	1.5708	0	0	-0.265629	-0.335647	0.552212	0.691424	1.13393	0	0
3.57	0.397038	1.49605	-1.39177	0.842765	0.515191	0.91117	0.269949	-0.134607	-0.517495	0.269512	0.0432537	0	0	-0.366024	-0.10318	-0.174047	0.105153	0.250747	0	0	-0.329752	0.101824	0.110165	0.455564	-0.299997	0.0671197	1.23656	1.5708	0	0	-0.250919	-0.279059	0.204866	0.615849	0.231464	0	0
3.58	0.383405	1.49782	-1.38421	0.842022	0.506329	0.910593	0.261584	-0.126418	-0.490399	0.252734	0.0198078	0	0	-0.36366	-0.110983	-0.187731	0.125642	0.25465	0	0	-0.325281	0.0987706	0.115053	0.437251	-0.302413	0.0589546	1.2518	1.5708	0	0	-0.273023	-0.324701	0.563207	0.68435	1.09127	0	0
3.59	0.343009	1.50017	-1.35404	0.840468	0.498722	0.911933	0.278223	-0.12826	-0.538817	0.297409	0.03523	0	0	-0.356259	-0.112686	-0.215839	0.146818	0.242771	0	0	-0.328667	0.102734	0.111906	0.434241	-0.296364	0.0636086	1.25997	1.5708	0	0	-0.250611	-0.260726	0.190792	0.592895	0.226492	0	0
3.6	0.160132	1.49746	-1.17895	0.840555	0.488821	0.911375	0.277164	-0.110537	-0.535176	0.310355	0.0367851	0	0	-0.354302	-0.132496	-0.200217	0.175353	0.24732	0	0	-0.323625	0.117389	0.114885	0.421095	-0.299639	0.0679322	1.27501	1.5708	0	0	-0.258818	-0.250122	0.18844	0.588282	0.21826	0	0
3.61	0.0901502	1.49661	-1.11332	0.839961	0.479745	0.911809	0.275907	-0.10169	-0.530074	0.322346	0.0374823	0	0	-0.349694	-0.146414	-0.210081	0.201288	0.245721	0	0	-0.321313	0.122631	0.112008	0.409657	-0.299158	0.0703369	1.28745	1.5708	0	0	-0.262622	-0.24177	0.18567	0.582403	0.21204	0	0
3.62	0.0107204	1.49686	-1.03928	0.83929	0.470478	0.912232	0.274713	-0.0915115	-0.525226	0.330945	0.0406794	0	0	-0.342364	-0.160891	-0.221057	0.229798	0.24296	0	0	-0.31692	0.127435	0.10935	0.397635	-0.298384	0.073039	1.29915	1.5708	0	0	-0.266587	-0.233148	0.181702	0.576322	0.207524	0	0
3.63	0.0492995	1.5019	-1.08064	0.837912	0.46254	0.913734	0.272437	-0.0900802	-0.519259	0.334067	0.0424745	0	0	-0.333636	-0.168615	-0.256449	0.25189	0.229367	0	0	-0.31584	0.120956	0.1009	0.388696	-0.292583	0.0739436	1.30624	1.5708	0	0	-0.266277	-0.227936	0.179762	0.570992	0.2041	0	0
3.64	-0.187144	1.49977	-0.854951	0.837002	0.451807	0.913065	0.269077	-0.0636885	-0.513073	0.327617	0.045978	0	0	-0.320548	-0.192089	-0.23956	0.291169	0.230344	0	0	-0.303485	0.135845	0.103358	0.374447	-0.29377	0.0805511	1.31883	1.5708	0	0	-0.276202	-0.218545	0.178649	0.569787	0.201053	0	0
3.65	-0.297067	1.50171	-0.752762	0.835681	0.442422	0.913521	0.263992	-0.0477467	-0.507849	0.317346	0.0466629	0	0	-0.305386	-0.207526	-0.250698	0.32661	0.220311	0	0	-0.294997	0.138868	0.100372	0.36239	-0.290305	0.0845978	1.32725	1.5708	0	0	-0.281374	-0.213066	0.181638	0.569469	0.198325	0	0
3.66	-0.407493	1.50364	-0.649846	0.834163	0.43284	0.913941	0.257763	-0.0320843	-0.50374	0.304455	0.047723	0	0	-0.286951	-0.222789	-0.260086	0.36668	0.207175	0	0	-0.28556	0.140623	0.0977837	0.349453	-0.286905	0.0879289	1.33443	1.5708	0	0	-0.285487	-0.209096	0.186727	0.569916	0.195107	0	0
3.67	-0.513189	1.50502	-0.550803	0.832616	0.423408	0.914413	0.249982	-0.0166926	-0.500148	0.289757	0.0494835	0	0	-0.265243	-0.238049	-0.265942	0.412008	0.189933	0	0	-0.27639	0.141617	0.0946784	0.336774	-0.283667	0.0913978	1.34053	1.5708	0	0	-0.28926	-0.206802	0.19362	0.573655	0.191354	0	0
3.68	-0.613973	1.5053	-0.456871	0.831209	0.414403	0.914983	0.241248	-0.00101672	-0.49537	0.274893	0.0520201	0	0	-0.240812	-0.254167	-0.269864	0.462867	0.167258	0	0	-0.268036	0.142669	0.0918876	0.325353	-0.281593	0.0969169	1.34585	1.5708	0	0	-0.292512	-0.205565	0.202879	0.579762	0.187691	0	0
3.69	-0.694384	1.50598	-0.37782	0.829077	0.405086	0.91544	0.23416	0.0165782	-0.482291	0.263138	0.050238	0	0	-0.213368	-0.28079	-0.280912	0.51885	0.146247	0	0	-0.259582	0.141482	0.0849466	0.315315	-0.280803	0.103788	1.35044	1.5708	0	0	-0.293731	-0.206723	0.215434	0.585694	0.184556	0	0
3.7	-0.810253	1.50231	-0.269695	0.827345	0.396255	0.915689	0.227162	0.0338702	-0.475682	0.250771	0.0525685	0	0	-0.180488	-0.299125	-0.274983	0.583939	0.114476	0	0	-0.251093	0.145897	0.082528	0.307189	-0.280957	0.11302	1.3547	1.5708	0	0	-0.296347	-0.206243	0.229359	0.594629	0.181905	0	0
3.71	-0.908191	1.49675	-0.180857	0.8256	0.387576	0.915816	0.220597	0.0516125	-0.468814	0.240651	0.0555266	0	0	-0.1469	-0.316211	-0.263213	0.651956	0.0787466	0	0	-0.243202	0.151252	0.0817924	0.299783	-0.283262	0.12355	1.35954	1.5708	0	0	-0.29929	-0.206118	0.242988	0.606685	0.180049	0	0
3.72	-1.01149	1.49014	-0.0875945	0.823815	0.379233	0.915591	0.216356	0.0695856	-0.460357	0.231662	0.0579012	0	0	-0.108701	-0.331081	-0.243474	0.725902	0.0437263	0	0	-0.233794	0.157132	0.0827361	0.292081	-0.287182	0.133858	1.36552	1.5708	0	0	-0.307565	-0.215082	0.296751	0.647675	0.263994	0	0
3.73	-1.16895	1.4784	0.059892	0.82297	0.371651	0.913859	0.221705	0.0888005	-0.454951	0.228634	0.0639554	0	0	-0.0673546	-0.337284	-0.202287	0.788182	0.0117339	0	0	-0.216972	0.170774	0.082826	0.285104	-0.295255	0.145762	1.37515	1.5708	0	0	-0.310727	-0.210532	0.304029	0.657602	0.248894	0	0
